# xmcd
#
# Track frame offsets: 
#        150
#        15727
#        30767
#        45522
#        60002
#        76125
#        87980
#        103477
#        117282
#        129707
#
# Disc length: 1884 seconds
#
# Revision: 3
# Processed by: cddbd v1.5.1PL0 Copyright (c) Steve Scherf et al.
# Submitted via: ExactAudioCopy v0.95a5
#
DISCID=6f075a0a
DTITLE=Dixiana - Dixiana
DYEAR=1992
DGENRE=Country
TTITLE0=I Didn't Think You'd Care
TTITLE1=A Heart That Can't Be Had
TTITLE2=Waitin' For The Deal To Go Down
TTITLE3=Are You Over Her
TTITLE4=It Comes And It Goes
TTITLE5=That's What I'm Working On Tonight
TTITLE6=I Know Where Therre's One
TTITLE7=Chain Of Heartaches
TTITLE8=If I Can't Have You
TTITLE9=A Little In Love
EXTD=Dixiana was a country band formed in 1986 by brothers Mark (bass/
EXTD=vocals) and Phil Lister (string instruments/vocals), along with k
EXTD=eyboardist Randall Griffith and drummer Colonel Shuford. The grou
EXTD=p was scheduled to appear on Nashville Now when they suddenly los
EXTD=t their original lead singer - fortunately, the Listers' childhood
EXTD=friend Cindy Murphy, formerly a member of the bluegrass Wooden N
EXTD=ickel Band, agreed to be their primary vocalist. The group signed
EXTD=to Epic in 1992 and released their first self-titled album, whic
EXTD=h contained two Top 40 singles, "Waitin' for the Deal to Go Down"
EXTD=and "That's What I'm Working on Tonight." -- Sandra Brennan, All
EXTD=Music Guide
EXTT0=
EXTT1=
EXTT2=
EXTT3=
EXTT4=
EXTT5=
EXTT6=
EXTT7=
EXTT8=
EXTT9=
PLAYORDER=
